<mxfile host="app.diagrams.net" modified="2022-07-11T22:36:25.629Z" agent="5.0 (Windows NT 10.0; Win64; x64) AppleWebKit/537.36 (KHTML, like Gecko) Chrome/103.0.0.0 Safari/537.36" etag="UxieytO-QEevOdmnJEur" version="20.0.4" type="github" pages="3">
  <diagram id="iO2c2UKgL1aBnviRLH2T" name="CDU HCPediatrica">
    <mxGraphModel dx="1422" dy="794" grid="1" gridSize="10" guides="1" tooltips="1" connect="1" arrows="1" fold="1" page="1" pageScale="1" pageWidth="827" pageHeight="1169" math="0" shadow="0">
      <root>
        <mxCell id="0" />
        <mxCell id="1" parent="0" />
        <mxCell id="s9VvMOrujGrFszEcUhTj-1" value="Crear Historia Clínica" style="ellipse;whiteSpace=wrap;html=1;fillColor=#dae8fc;strokeColor=#6c8ebf;" vertex="1" parent="1">
          <mxGeometry x="338" y="280" width="140" height="70" as="geometry" />
        </mxCell>
        <mxCell id="s9VvMOrujGrFszEcUhTj-2" value="Registrar Historia Clínica Pediatrica" style="ellipse;whiteSpace=wrap;html=1;fillColor=#dae8fc;strokeColor=#6c8ebf;" vertex="1" parent="1">
          <mxGeometry x="338" y="470" width="140" height="70" as="geometry" />
        </mxCell>
        <mxCell id="s9VvMOrujGrFszEcUhTj-3" value="Extends" style="endArrow=block;endSize=16;endFill=0;html=1;rounded=0;exitX=0.5;exitY=1;exitDx=0;exitDy=0;" edge="1" parent="1" source="s9VvMOrujGrFszEcUhTj-1" target="s9VvMOrujGrFszEcUhTj-2">
          <mxGeometry width="160" relative="1" as="geometry">
            <mxPoint x="324" y="400" as="sourcePoint" />
            <mxPoint x="484" y="400" as="targetPoint" />
          </mxGeometry>
        </mxCell>
        <mxCell id="s9VvMOrujGrFszEcUhTj-4" value="Registro de antecedentes del parto" style="ellipse;whiteSpace=wrap;html=1;" vertex="1" parent="1">
          <mxGeometry x="34" y="500" width="140" height="70" as="geometry" />
        </mxCell>
        <mxCell id="s9VvMOrujGrFszEcUhTj-5" value="Registro de antecedentes postnatales" style="ellipse;whiteSpace=wrap;html=1;" vertex="1" parent="1">
          <mxGeometry x="64" y="605" width="140" height="70" as="geometry" />
        </mxCell>
        <mxCell id="s9VvMOrujGrFszEcUhTj-6" value="Registro de alimentación" style="ellipse;whiteSpace=wrap;html=1;" vertex="1" parent="1">
          <mxGeometry x="234" y="660" width="140" height="70" as="geometry" />
        </mxCell>
        <mxCell id="s9VvMOrujGrFszEcUhTj-7" value="Registro de Desarrollo Psicomotor" style="ellipse;whiteSpace=wrap;html=1;" vertex="1" parent="1">
          <mxGeometry x="654" y="470" width="140" height="70" as="geometry" />
        </mxCell>
        <mxCell id="s9VvMOrujGrFszEcUhTj-8" value="Registro de Antecedentes patológicos" style="ellipse;whiteSpace=wrap;html=1;" vertex="1" parent="1">
          <mxGeometry x="604" y="590" width="140" height="70" as="geometry" />
        </mxCell>
        <mxCell id="s9VvMOrujGrFszEcUhTj-9" value="Registro de Antecedentes no &lt;br&gt;patológicos" style="ellipse;whiteSpace=wrap;html=1;" vertex="1" parent="1">
          <mxGeometry x="44" y="400" width="140" height="70" as="geometry" />
        </mxCell>
        <mxCell id="s9VvMOrujGrFszEcUhTj-10" value="Consulta de Esquema de Vacunación (SIPAI)" style="ellipse;whiteSpace=wrap;html=1;" vertex="1" parent="1">
          <mxGeometry x="54" y="280" width="140" height="70" as="geometry" />
        </mxCell>
        <mxCell id="s9VvMOrujGrFszEcUhTj-11" value="Registro de Antecedentes personales" style="ellipse;whiteSpace=wrap;html=1;" vertex="1" parent="1">
          <mxGeometry x="654" y="360" width="140" height="70" as="geometry" />
        </mxCell>
        <mxCell id="s9VvMOrujGrFszEcUhTj-12" value="Registro de Examen Físico" style="ellipse;whiteSpace=wrap;html=1;" vertex="1" parent="1">
          <mxGeometry x="424" y="650" width="140" height="70" as="geometry" />
        </mxCell>
        <mxCell id="s9VvMOrujGrFszEcUhTj-13" value="Extends" style="endArrow=block;endSize=16;endFill=0;html=1;rounded=0;" edge="1" parent="1" source="s9VvMOrujGrFszEcUhTj-2" target="s9VvMOrujGrFszEcUhTj-10">
          <mxGeometry width="160" relative="1" as="geometry">
            <mxPoint x="654" y="400" as="sourcePoint" />
            <mxPoint x="814" y="400" as="targetPoint" />
          </mxGeometry>
        </mxCell>
        <mxCell id="s9VvMOrujGrFszEcUhTj-14" value="Use" style="endArrow=open;endSize=12;dashed=1;html=1;rounded=0;exitX=0;exitY=0.5;exitDx=0;exitDy=0;" edge="1" parent="1" source="s9VvMOrujGrFszEcUhTj-2" target="s9VvMOrujGrFszEcUhTj-9">
          <mxGeometry width="160" relative="1" as="geometry">
            <mxPoint x="214" y="470" as="sourcePoint" />
            <mxPoint x="394" y="524.5" as="targetPoint" />
          </mxGeometry>
        </mxCell>
        <mxCell id="s9VvMOrujGrFszEcUhTj-15" value="Use" style="endArrow=open;endSize=12;dashed=1;html=1;rounded=0;" edge="1" parent="1" source="s9VvMOrujGrFszEcUhTj-2" target="s9VvMOrujGrFszEcUhTj-4">
          <mxGeometry width="160" relative="1" as="geometry">
            <mxPoint x="334" y="535" as="sourcePoint" />
            <mxPoint x="173.05630414125108" y="483.7906422267615" as="targetPoint" />
          </mxGeometry>
        </mxCell>
        <mxCell id="s9VvMOrujGrFszEcUhTj-16" value="Use" style="endArrow=open;endSize=12;dashed=1;html=1;rounded=0;" edge="1" parent="1" source="s9VvMOrujGrFszEcUhTj-2" target="s9VvMOrujGrFszEcUhTj-5">
          <mxGeometry width="160" relative="1" as="geometry">
            <mxPoint x="344" y="545" as="sourcePoint" />
            <mxPoint x="187.72565342238477" y="580.516896949458" as="targetPoint" />
          </mxGeometry>
        </mxCell>
        <mxCell id="s9VvMOrujGrFszEcUhTj-17" value="Use" style="endArrow=open;endSize=12;dashed=1;html=1;rounded=0;" edge="1" parent="1" source="s9VvMOrujGrFszEcUhTj-2" target="s9VvMOrujGrFszEcUhTj-6">
          <mxGeometry width="160" relative="1" as="geometry">
            <mxPoint x="381.30278744141424" y="544.8048426871765" as="sourcePoint" />
            <mxPoint x="464" y="760" as="targetPoint" />
          </mxGeometry>
        </mxCell>
        <mxCell id="s9VvMOrujGrFszEcUhTj-18" value="Use" style="endArrow=open;endSize=12;dashed=1;html=1;rounded=0;" edge="1" parent="1" source="s9VvMOrujGrFszEcUhTj-2" target="s9VvMOrujGrFszEcUhTj-11">
          <mxGeometry width="160" relative="1" as="geometry">
            <mxPoint x="654" y="400" as="sourcePoint" />
            <mxPoint x="814" y="400" as="targetPoint" />
          </mxGeometry>
        </mxCell>
        <mxCell id="s9VvMOrujGrFszEcUhTj-19" value="Use" style="endArrow=open;endSize=12;dashed=1;html=1;rounded=0;" edge="1" parent="1" source="s9VvMOrujGrFszEcUhTj-2" target="s9VvMOrujGrFszEcUhTj-7">
          <mxGeometry width="160" relative="1" as="geometry">
            <mxPoint x="654" y="400" as="sourcePoint" />
            <mxPoint x="814" y="400" as="targetPoint" />
          </mxGeometry>
        </mxCell>
        <mxCell id="s9VvMOrujGrFszEcUhTj-20" value="Use" style="endArrow=open;endSize=12;dashed=1;html=1;rounded=0;" edge="1" parent="1" source="s9VvMOrujGrFszEcUhTj-2" target="s9VvMOrujGrFszEcUhTj-12">
          <mxGeometry width="160" relative="1" as="geometry">
            <mxPoint x="391.30278744141424" y="554.8048426871765" as="sourcePoint" />
            <mxPoint x="230.7043214682567" y="685.1973458163725" as="targetPoint" />
          </mxGeometry>
        </mxCell>
        <mxCell id="s9VvMOrujGrFszEcUhTj-21" value="Use" style="endArrow=open;endSize=12;dashed=1;html=1;rounded=0;" edge="1" parent="1" source="s9VvMOrujGrFszEcUhTj-2" target="s9VvMOrujGrFszEcUhTj-8">
          <mxGeometry width="160" relative="1" as="geometry">
            <mxPoint x="401.30278744141424" y="564.8048426871765" as="sourcePoint" />
            <mxPoint x="240.7043214682567" y="695.1973458163725" as="targetPoint" />
          </mxGeometry>
        </mxCell>
        <mxCell id="s9VvMOrujGrFszEcUhTj-22" value="Registro de Historia Socio Economica" style="ellipse;whiteSpace=wrap;html=1;" vertex="1" parent="1">
          <mxGeometry x="634" y="270" width="140" height="70" as="geometry" />
        </mxCell>
        <mxCell id="s9VvMOrujGrFszEcUhTj-23" value="Use" style="endArrow=open;endSize=12;dashed=1;html=1;rounded=0;" edge="1" parent="1" source="s9VvMOrujGrFszEcUhTj-2" target="s9VvMOrujGrFszEcUhTj-22">
          <mxGeometry width="160" relative="1" as="geometry">
            <mxPoint x="654" y="500" as="sourcePoint" />
            <mxPoint x="814" y="500" as="targetPoint" />
          </mxGeometry>
        </mxCell>
        <mxCell id="s9VvMOrujGrFszEcUhTj-24" value="" style="edgeStyle=orthogonalEdgeStyle;rounded=0;orthogonalLoop=1;jettySize=auto;html=1;" edge="1" parent="1" source="s9VvMOrujGrFszEcUhTj-26" target="s9VvMOrujGrFszEcUhTj-1">
          <mxGeometry relative="1" as="geometry" />
        </mxCell>
        <mxCell id="s9VvMOrujGrFszEcUhTj-25" value="" style="edgeStyle=orthogonalEdgeStyle;rounded=0;orthogonalLoop=1;jettySize=auto;html=1;" edge="1" parent="1" source="s9VvMOrujGrFszEcUhTj-26" target="s9VvMOrujGrFszEcUhTj-1">
          <mxGeometry relative="1" as="geometry" />
        </mxCell>
        <mxCell id="s9VvMOrujGrFszEcUhTj-26" value="Usuario (Médico / Estadístico)" style="shape=umlActor;verticalLabelPosition=bottom;verticalAlign=top;html=1;" vertex="1" parent="1">
          <mxGeometry x="393" y="130" width="30" height="60" as="geometry" />
        </mxCell>
      </root>
    </mxGraphModel>
  </diagram>
  <diagram id="Sh7ewEyaep19xNls0Qol" name="CDU HCAdolescente">
    <mxGraphModel dx="1422" dy="794" grid="1" gridSize="10" guides="1" tooltips="1" connect="1" arrows="1" fold="1" page="1" pageScale="1" pageWidth="827" pageHeight="1169" math="0" shadow="0">
      <root>
        <mxCell id="0" />
        <mxCell id="1" parent="0" />
        <mxCell id="1JOG1_vCB4ek55YnJBLA-1" value="Crear Historia Clínica" style="ellipse;whiteSpace=wrap;html=1;fillColor=#dae8fc;strokeColor=#6c8ebf;" vertex="1" parent="1">
          <mxGeometry x="354" y="140" width="140" height="70" as="geometry" />
        </mxCell>
        <mxCell id="1JOG1_vCB4ek55YnJBLA-2" value="Registrar Historia Clínica de Adolescentes" style="ellipse;whiteSpace=wrap;html=1;fillColor=#dae8fc;strokeColor=#6c8ebf;" vertex="1" parent="1">
          <mxGeometry x="354" y="400" width="140" height="70" as="geometry" />
        </mxCell>
        <mxCell id="1JOG1_vCB4ek55YnJBLA-3" value="Registro de Antecedentes Familiares" style="ellipse;whiteSpace=wrap;html=1;" vertex="1" parent="1">
          <mxGeometry x="14" y="400" width="140" height="70" as="geometry" />
        </mxCell>
        <mxCell id="1JOG1_vCB4ek55YnJBLA-4" value="Registro de Antecedentes personales" style="ellipse;whiteSpace=wrap;html=1;" vertex="1" parent="1">
          <mxGeometry x="674" y="300" width="140" height="70" as="geometry" />
        </mxCell>
        <mxCell id="1JOG1_vCB4ek55YnJBLA-5" value="Registro de Antecedentes patológicos" style="ellipse;whiteSpace=wrap;html=1;" vertex="1" parent="1">
          <mxGeometry x="674" y="380" width="140" height="70" as="geometry" />
        </mxCell>
        <mxCell id="1JOG1_vCB4ek55YnJBLA-6" value="Registro de Antecedentes no &lt;br&gt;patológicos" style="ellipse;whiteSpace=wrap;html=1;" vertex="1" parent="1">
          <mxGeometry x="674" y="630" width="140" height="70" as="geometry" />
        </mxCell>
        <mxCell id="1JOG1_vCB4ek55YnJBLA-7" value="Registro de Historia Socio Economica" style="ellipse;whiteSpace=wrap;html=1;" vertex="1" parent="1">
          <mxGeometry x="14" y="490" width="140" height="70" as="geometry" />
        </mxCell>
        <mxCell id="1JOG1_vCB4ek55YnJBLA-8" value="Registro de Examen Físico" style="ellipse;whiteSpace=wrap;html=1;" vertex="1" parent="1">
          <mxGeometry x="674" y="540" width="140" height="70" as="geometry" />
        </mxCell>
        <mxCell id="1JOG1_vCB4ek55YnJBLA-9" value="Consultar datos personales del paciente (Web Service Persona)" style="ellipse;whiteSpace=wrap;html=1;" vertex="1" parent="1">
          <mxGeometry x="674" y="210" width="140" height="70" as="geometry" />
        </mxCell>
        <mxCell id="1JOG1_vCB4ek55YnJBLA-10" value="Buscar datos de consulta principal del paciente&amp;nbsp;" style="ellipse;whiteSpace=wrap;html=1;" vertex="1" parent="1">
          <mxGeometry x="14" y="320" width="140" height="70" as="geometry" />
        </mxCell>
        <mxCell id="1JOG1_vCB4ek55YnJBLA-11" value="Obtener detalle de consulta principal del paciente" style="ellipse;whiteSpace=wrap;html=1;" vertex="1" parent="1">
          <mxGeometry x="14" y="240" width="140" height="70" as="geometry" />
        </mxCell>
        <mxCell id="1JOG1_vCB4ek55YnJBLA-12" value="Registrar datos de Educación (Servicio web MINED)" style="ellipse;whiteSpace=wrap;html=1;" vertex="1" parent="1">
          <mxGeometry x="674" y="460" width="140" height="70" as="geometry" />
        </mxCell>
        <mxCell id="1JOG1_vCB4ek55YnJBLA-13" value="Registrar información laboral" style="ellipse;whiteSpace=wrap;html=1;" vertex="1" parent="1">
          <mxGeometry x="84" y="660" width="140" height="70" as="geometry" />
        </mxCell>
        <mxCell id="1JOG1_vCB4ek55YnJBLA-14" value="Registro de Datos de Vida Social" style="ellipse;whiteSpace=wrap;html=1;" vertex="1" parent="1">
          <mxGeometry x="14" y="580" width="140" height="70" as="geometry" />
        </mxCell>
        <mxCell id="1JOG1_vCB4ek55YnJBLA-15" value="&lt;br&gt;Registro de Datos de Sexualidad&lt;br&gt;" style="ellipse;whiteSpace=wrap;html=1;" vertex="1" parent="1">
          <mxGeometry x="164" y="730" width="140" height="70" as="geometry" />
        </mxCell>
        <mxCell id="1JOG1_vCB4ek55YnJBLA-16" value="Registro de situación psico-emocional" style="ellipse;whiteSpace=wrap;html=1;" vertex="1" parent="1">
          <mxGeometry x="304" y="780" width="140" height="70" as="geometry" />
        </mxCell>
        <mxCell id="1JOG1_vCB4ek55YnJBLA-17" value="Consulta de antecedentes de Historias Clínicas" style="ellipse;whiteSpace=wrap;html=1;" vertex="1" parent="1">
          <mxGeometry x="454" y="780" width="140" height="70" as="geometry" />
        </mxCell>
        <mxCell id="1JOG1_vCB4ek55YnJBLA-18" value="Registro de antecedentes gineco-obstétricos" style="ellipse;whiteSpace=wrap;html=1;" vertex="1" parent="1">
          <mxGeometry x="584" y="730" width="140" height="70" as="geometry" />
        </mxCell>
        <mxCell id="1JOG1_vCB4ek55YnJBLA-19" value="Extends" style="endArrow=block;endSize=16;endFill=0;html=1;rounded=0;" edge="1" parent="1" source="1JOG1_vCB4ek55YnJBLA-1" target="1JOG1_vCB4ek55YnJBLA-2">
          <mxGeometry width="160" relative="1" as="geometry">
            <mxPoint x="594" y="380" as="sourcePoint" />
            <mxPoint x="754" y="380" as="targetPoint" />
          </mxGeometry>
        </mxCell>
        <mxCell id="1JOG1_vCB4ek55YnJBLA-20" value="Use" style="endArrow=open;endSize=12;dashed=1;html=1;rounded=0;" edge="1" parent="1" source="1JOG1_vCB4ek55YnJBLA-2" target="1JOG1_vCB4ek55YnJBLA-4">
          <mxGeometry width="160" relative="1" as="geometry">
            <mxPoint x="594" y="380" as="sourcePoint" />
            <mxPoint x="754" y="380" as="targetPoint" />
          </mxGeometry>
        </mxCell>
        <mxCell id="1JOG1_vCB4ek55YnJBLA-21" value="Use" style="endArrow=open;endSize=12;dashed=1;html=1;rounded=0;" edge="1" parent="1" source="1JOG1_vCB4ek55YnJBLA-2" target="1JOG1_vCB4ek55YnJBLA-5">
          <mxGeometry width="160" relative="1" as="geometry">
            <mxPoint x="482.0636473074733" y="419.55453966074947" as="sourcePoint" />
            <mxPoint x="706.0244710696506" y="300.4869997442481" as="targetPoint" />
          </mxGeometry>
        </mxCell>
        <mxCell id="1JOG1_vCB4ek55YnJBLA-22" value="Use" style="endArrow=open;endSize=12;dashed=1;html=1;rounded=0;" edge="1" parent="1" source="1JOG1_vCB4ek55YnJBLA-2" target="1JOG1_vCB4ek55YnJBLA-8">
          <mxGeometry width="160" relative="1" as="geometry">
            <mxPoint x="512.0636473074733" y="449.55453966074947" as="sourcePoint" />
            <mxPoint x="736.0244710696506" y="330.4869997442481" as="targetPoint" />
          </mxGeometry>
        </mxCell>
        <mxCell id="1JOG1_vCB4ek55YnJBLA-23" value="Extends" style="endArrow=block;endSize=16;endFill=0;html=1;rounded=0;" edge="1" parent="1" source="1JOG1_vCB4ek55YnJBLA-2" target="1JOG1_vCB4ek55YnJBLA-12">
          <mxGeometry width="160" relative="1" as="geometry">
            <mxPoint x="594" y="380" as="sourcePoint" />
            <mxPoint x="754" y="380" as="targetPoint" />
          </mxGeometry>
        </mxCell>
        <mxCell id="1JOG1_vCB4ek55YnJBLA-24" value="Use" style="endArrow=open;endSize=12;dashed=1;html=1;rounded=0;entryX=0.036;entryY=0.329;entryDx=0;entryDy=0;entryPerimeter=0;" edge="1" parent="1" source="1JOG1_vCB4ek55YnJBLA-2" target="1JOG1_vCB4ek55YnJBLA-6">
          <mxGeometry width="160" relative="1" as="geometry">
            <mxPoint x="482.0636473074733" y="470.44546033925053" as="sourcePoint" />
            <mxPoint x="706.0244710696506" y="589.5130002557519" as="targetPoint" />
          </mxGeometry>
        </mxCell>
        <mxCell id="1JOG1_vCB4ek55YnJBLA-25" value="Use" style="endArrow=open;endSize=12;dashed=1;html=1;rounded=0;" edge="1" parent="1" source="1JOG1_vCB4ek55YnJBLA-2" target="1JOG1_vCB4ek55YnJBLA-18">
          <mxGeometry width="160" relative="1" as="geometry">
            <mxPoint x="492.0636473074733" y="480.44546033925053" as="sourcePoint" />
            <mxPoint x="716.0244710696506" y="599.5130002557519" as="targetPoint" />
          </mxGeometry>
        </mxCell>
        <mxCell id="1JOG1_vCB4ek55YnJBLA-26" value="Use" style="endArrow=open;endSize=12;dashed=1;html=1;rounded=0;entryX=0.5;entryY=0;entryDx=0;entryDy=0;" edge="1" parent="1" source="1JOG1_vCB4ek55YnJBLA-2" target="1JOG1_vCB4ek55YnJBLA-17">
          <mxGeometry width="160" relative="1" as="geometry">
            <mxPoint x="502.0636473074733" y="490.44546033925053" as="sourcePoint" />
            <mxPoint x="726.0244710696506" y="609.5130002557519" as="targetPoint" />
          </mxGeometry>
        </mxCell>
        <mxCell id="1JOG1_vCB4ek55YnJBLA-27" value="Use" style="endArrow=open;endSize=12;dashed=1;html=1;rounded=0;" edge="1" parent="1" source="1JOG1_vCB4ek55YnJBLA-2" target="1JOG1_vCB4ek55YnJBLA-16">
          <mxGeometry width="160" relative="1" as="geometry">
            <mxPoint x="512.0636473074733" y="500.44546033925053" as="sourcePoint" />
            <mxPoint x="736.0244710696506" y="619.5130002557519" as="targetPoint" />
          </mxGeometry>
        </mxCell>
        <mxCell id="1JOG1_vCB4ek55YnJBLA-28" value="Use" style="endArrow=open;endSize=12;dashed=1;html=1;rounded=0;" edge="1" parent="1" source="1JOG1_vCB4ek55YnJBLA-2" target="1JOG1_vCB4ek55YnJBLA-15">
          <mxGeometry width="160" relative="1" as="geometry">
            <mxPoint x="522.0636473074733" y="510.44546033925053" as="sourcePoint" />
            <mxPoint x="746.0244710696506" y="629.5130002557519" as="targetPoint" />
          </mxGeometry>
        </mxCell>
        <mxCell id="1JOG1_vCB4ek55YnJBLA-29" value="Use" style="endArrow=open;endSize=12;dashed=1;html=1;rounded=0;" edge="1" parent="1" source="1JOG1_vCB4ek55YnJBLA-2" target="1JOG1_vCB4ek55YnJBLA-13">
          <mxGeometry width="160" relative="1" as="geometry">
            <mxPoint x="532.0636473074733" y="520.4454603392505" as="sourcePoint" />
            <mxPoint x="756.0244710696506" y="639.5130002557519" as="targetPoint" />
          </mxGeometry>
        </mxCell>
        <mxCell id="1JOG1_vCB4ek55YnJBLA-30" value="Use" style="endArrow=open;endSize=12;dashed=1;html=1;rounded=0;" edge="1" parent="1" source="1JOG1_vCB4ek55YnJBLA-2" target="1JOG1_vCB4ek55YnJBLA-14">
          <mxGeometry width="160" relative="1" as="geometry">
            <mxPoint x="552.0636473074733" y="540.4454603392505" as="sourcePoint" />
            <mxPoint x="776.0244710696506" y="659.5130002557519" as="targetPoint" />
          </mxGeometry>
        </mxCell>
        <mxCell id="1JOG1_vCB4ek55YnJBLA-31" value="Use" style="endArrow=open;endSize=12;dashed=1;html=1;rounded=0;" edge="1" parent="1" source="1JOG1_vCB4ek55YnJBLA-2" target="1JOG1_vCB4ek55YnJBLA-7">
          <mxGeometry width="160" relative="1" as="geometry">
            <mxPoint x="562.0636473074733" y="550.4454603392505" as="sourcePoint" />
            <mxPoint x="786.0244710696506" y="669.5130002557519" as="targetPoint" />
          </mxGeometry>
        </mxCell>
        <mxCell id="1JOG1_vCB4ek55YnJBLA-32" value="Use" style="endArrow=open;endSize=12;dashed=1;html=1;rounded=0;" edge="1" parent="1" source="1JOG1_vCB4ek55YnJBLA-2" target="1JOG1_vCB4ek55YnJBLA-3">
          <mxGeometry width="160" relative="1" as="geometry">
            <mxPoint x="364" y="445" as="sourcePoint" />
            <mxPoint x="174" y="445" as="targetPoint" />
          </mxGeometry>
        </mxCell>
        <mxCell id="1JOG1_vCB4ek55YnJBLA-33" value="Use" style="endArrow=open;endSize=12;dashed=1;html=1;rounded=0;" edge="1" parent="1" source="1JOG1_vCB4ek55YnJBLA-2" target="1JOG1_vCB4ek55YnJBLA-10">
          <mxGeometry width="160" relative="1" as="geometry">
            <mxPoint x="370.8786370794512" y="429.8697856669846" as="sourcePoint" />
            <mxPoint x="166.98698750373" y="380.2695727281771" as="targetPoint" />
          </mxGeometry>
        </mxCell>
        <mxCell id="1JOG1_vCB4ek55YnJBLA-34" value="Use" style="endArrow=open;endSize=12;dashed=1;html=1;rounded=0;" edge="1" parent="1" source="1JOG1_vCB4ek55YnJBLA-2" target="1JOG1_vCB4ek55YnJBLA-11">
          <mxGeometry width="160" relative="1" as="geometry">
            <mxPoint x="380.8786370794512" y="439.8697856669846" as="sourcePoint" />
            <mxPoint x="176.98698750373" y="390.2695727281771" as="targetPoint" />
          </mxGeometry>
        </mxCell>
        <mxCell id="1JOG1_vCB4ek55YnJBLA-35" value="Extends" style="endArrow=block;endSize=16;endFill=0;html=1;rounded=0;" edge="1" parent="1" source="1JOG1_vCB4ek55YnJBLA-2" target="1JOG1_vCB4ek55YnJBLA-9">
          <mxGeometry width="160" relative="1" as="geometry">
            <mxPoint x="594" y="310" as="sourcePoint" />
            <mxPoint x="754" y="310" as="targetPoint" />
          </mxGeometry>
        </mxCell>
        <mxCell id="1JOG1_vCB4ek55YnJBLA-36" value="" style="edgeStyle=orthogonalEdgeStyle;rounded=0;orthogonalLoop=1;jettySize=auto;html=1;" edge="1" parent="1" target="1JOG1_vCB4ek55YnJBLA-1">
          <mxGeometry relative="1" as="geometry">
            <mxPoint x="249" y="60" as="sourcePoint" />
          </mxGeometry>
        </mxCell>
        <mxCell id="1JOG1_vCB4ek55YnJBLA-37" value="" style="edgeStyle=orthogonalEdgeStyle;rounded=0;orthogonalLoop=1;jettySize=auto;html=1;" edge="1" parent="1" target="1JOG1_vCB4ek55YnJBLA-1">
          <mxGeometry relative="1" as="geometry">
            <mxPoint x="249" y="60" as="sourcePoint" />
          </mxGeometry>
        </mxCell>
        <mxCell id="1JOG1_vCB4ek55YnJBLA-38" value="Médico / Estadístico" style="shape=umlActor;verticalLabelPosition=bottom;verticalAlign=top;html=1;" vertex="1" parent="1">
          <mxGeometry x="219" y="30" width="30" height="60" as="geometry" />
        </mxCell>
      </root>
    </mxGraphModel>
  </diagram>
  <diagram id="c7l3rZqUwPLH_u3BNQFI" name="CDU Adulto">
    <mxGraphModel dx="1422" dy="794" grid="1" gridSize="10" guides="1" tooltips="1" connect="1" arrows="1" fold="1" page="1" pageScale="1" pageWidth="827" pageHeight="1169" math="0" shadow="0">
      <root>
        <mxCell id="0" />
        <mxCell id="1" parent="0" />
        <mxCell id="hDHnEfzuD4LZ0uGaTvJS-1" value="Registrar Historia Clínica de Adultos" style="ellipse;whiteSpace=wrap;html=1;fillColor=#dae8fc;strokeColor=#6c8ebf;" vertex="1" parent="1">
          <mxGeometry x="350" y="420" width="140" height="70" as="geometry" />
        </mxCell>
        <mxCell id="hDHnEfzuD4LZ0uGaTvJS-2" value="Registro de Antecedentes Familiares" style="ellipse;whiteSpace=wrap;html=1;" vertex="1" parent="1">
          <mxGeometry x="670" y="410" width="140" height="70" as="geometry" />
        </mxCell>
        <mxCell id="hDHnEfzuD4LZ0uGaTvJS-3" value="Registro de Antecedentes patológicos" style="ellipse;whiteSpace=wrap;html=1;" vertex="1" parent="1">
          <mxGeometry x="660" y="570" width="140" height="70" as="geometry" />
        </mxCell>
        <mxCell id="hDHnEfzuD4LZ0uGaTvJS-4" value="Registro de Antecedentes no &lt;br&gt;patológicos" style="ellipse;whiteSpace=wrap;html=1;" vertex="1" parent="1">
          <mxGeometry x="20" y="440" width="140" height="70" as="geometry" />
        </mxCell>
        <mxCell id="hDHnEfzuD4LZ0uGaTvJS-5" value="Consulta de Esquema de Vacunación (SIPAI)" style="ellipse;whiteSpace=wrap;html=1;" vertex="1" parent="1">
          <mxGeometry x="30" y="360" width="140" height="70" as="geometry" />
        </mxCell>
        <mxCell id="hDHnEfzuD4LZ0uGaTvJS-6" value="Crear Historia Clínica" style="ellipse;whiteSpace=wrap;html=1;fillColor=#dae8fc;strokeColor=#6c8ebf;" vertex="1" parent="1">
          <mxGeometry x="350" y="250" width="140" height="70" as="geometry" />
        </mxCell>
        <mxCell id="hDHnEfzuD4LZ0uGaTvJS-7" value="Obtener detalle de consulta principal del paciente" style="ellipse;whiteSpace=wrap;html=1;" vertex="1" parent="1">
          <mxGeometry x="670" y="490" width="140" height="70" as="geometry" />
        </mxCell>
        <mxCell id="hDHnEfzuD4LZ0uGaTvJS-8" value="Registro de Antecedentes personales" style="ellipse;whiteSpace=wrap;html=1;" vertex="1" parent="1">
          <mxGeometry x="630" y="650" width="140" height="70" as="geometry" />
        </mxCell>
        <mxCell id="hDHnEfzuD4LZ0uGaTvJS-9" value="Consulta de Datos de Violencia" style="ellipse;whiteSpace=wrap;html=1;" vertex="1" parent="1">
          <mxGeometry x="580" y="730" width="140" height="70" as="geometry" />
        </mxCell>
        <mxCell id="hDHnEfzuD4LZ0uGaTvJS-10" value="Registrar antecedentes laborales" style="ellipse;whiteSpace=wrap;html=1;" vertex="1" parent="1">
          <mxGeometry x="440" y="690" width="140" height="70" as="geometry" />
        </mxCell>
        <mxCell id="hDHnEfzuD4LZ0uGaTvJS-11" value="Registrar información laboral" style="ellipse;whiteSpace=wrap;html=1;" vertex="1" parent="1">
          <mxGeometry x="344" y="750" width="140" height="70" as="geometry" />
        </mxCell>
        <mxCell id="hDHnEfzuD4LZ0uGaTvJS-12" value="Registro de Examen Físico" style="ellipse;whiteSpace=wrap;html=1;" vertex="1" parent="1">
          <mxGeometry x="210" y="720" width="140" height="70" as="geometry" />
        </mxCell>
        <mxCell id="hDHnEfzuD4LZ0uGaTvJS-13" value="Obtener datos de Educación (Servicio web MINED)" style="ellipse;whiteSpace=wrap;html=1;" vertex="1" parent="1">
          <mxGeometry x="90" y="670" width="140" height="70" as="geometry" />
        </mxCell>
        <mxCell id="hDHnEfzuD4LZ0uGaTvJS-14" value="Consultar datos personales del paciente (Consulta Externa)" style="ellipse;whiteSpace=wrap;html=1;" vertex="1" parent="1">
          <mxGeometry x="30" y="600" width="140" height="70" as="geometry" />
        </mxCell>
        <mxCell id="hDHnEfzuD4LZ0uGaTvJS-15" value="Registro de antecedentes gineco-obstétricos" style="ellipse;whiteSpace=wrap;html=1;" vertex="1" parent="1">
          <mxGeometry x="20" y="515" width="140" height="70" as="geometry" />
        </mxCell>
        <mxCell id="hDHnEfzuD4LZ0uGaTvJS-16" value="Extends" style="endArrow=block;endSize=16;endFill=0;html=1;rounded=0;" edge="1" parent="1" source="hDHnEfzuD4LZ0uGaTvJS-6" target="hDHnEfzuD4LZ0uGaTvJS-1">
          <mxGeometry width="160" relative="1" as="geometry">
            <mxPoint x="710" y="410" as="sourcePoint" />
            <mxPoint x="870" y="410" as="targetPoint" />
          </mxGeometry>
        </mxCell>
        <mxCell id="hDHnEfzuD4LZ0uGaTvJS-17" value="Use" style="endArrow=open;endSize=12;dashed=1;html=1;rounded=0;" edge="1" parent="1" source="hDHnEfzuD4LZ0uGaTvJS-1" target="hDHnEfzuD4LZ0uGaTvJS-7">
          <mxGeometry width="160" relative="1" as="geometry">
            <mxPoint x="501.28688642806037" y="341.1795503793844" as="sourcePoint" />
            <mxPoint x="698.6255946173892" y="248.7732542554827" as="targetPoint" />
          </mxGeometry>
        </mxCell>
        <mxCell id="hDHnEfzuD4LZ0uGaTvJS-18" value="Use" style="endArrow=open;endSize=12;dashed=1;html=1;rounded=0;" edge="1" parent="1" source="hDHnEfzuD4LZ0uGaTvJS-1" target="hDHnEfzuD4LZ0uGaTvJS-3">
          <mxGeometry width="160" relative="1" as="geometry">
            <mxPoint x="521.2868864280604" y="361.1795503793844" as="sourcePoint" />
            <mxPoint x="718.6255946173892" y="268.7732542554827" as="targetPoint" />
          </mxGeometry>
        </mxCell>
        <mxCell id="hDHnEfzuD4LZ0uGaTvJS-19" value="Use" style="endArrow=open;endSize=12;dashed=1;html=1;rounded=0;" edge="1" parent="1" source="hDHnEfzuD4LZ0uGaTvJS-1" target="hDHnEfzuD4LZ0uGaTvJS-8">
          <mxGeometry width="160" relative="1" as="geometry">
            <mxPoint x="531.2868864280604" y="371.1795503793844" as="sourcePoint" />
            <mxPoint x="728.6255946173892" y="278.7732542554827" as="targetPoint" />
          </mxGeometry>
        </mxCell>
        <mxCell id="hDHnEfzuD4LZ0uGaTvJS-20" value="Use" style="endArrow=open;endSize=12;dashed=1;html=1;rounded=0;" edge="1" parent="1" source="hDHnEfzuD4LZ0uGaTvJS-1" target="hDHnEfzuD4LZ0uGaTvJS-9">
          <mxGeometry width="160" relative="1" as="geometry">
            <mxPoint x="541.2868864280604" y="381.1795503793844" as="sourcePoint" />
            <mxPoint x="738.6255946173892" y="288.7732542554827" as="targetPoint" />
          </mxGeometry>
        </mxCell>
        <mxCell id="hDHnEfzuD4LZ0uGaTvJS-21" value="Use" style="endArrow=open;endSize=12;dashed=1;html=1;rounded=0;" edge="1" parent="1" source="hDHnEfzuD4LZ0uGaTvJS-1" target="hDHnEfzuD4LZ0uGaTvJS-10">
          <mxGeometry width="160" relative="1" as="geometry">
            <mxPoint x="551.2868864280604" y="391.1795503793844" as="sourcePoint" />
            <mxPoint x="748.6255946173892" y="298.7732542554827" as="targetPoint" />
          </mxGeometry>
        </mxCell>
        <mxCell id="hDHnEfzuD4LZ0uGaTvJS-22" value="Use" style="endArrow=open;endSize=12;dashed=1;html=1;rounded=0;" edge="1" parent="1" source="hDHnEfzuD4LZ0uGaTvJS-1" target="hDHnEfzuD4LZ0uGaTvJS-2">
          <mxGeometry width="160" relative="1" as="geometry">
            <mxPoint x="561.2868864280604" y="401.1795503793844" as="sourcePoint" />
            <mxPoint x="758.6255946173892" y="308.7732542554827" as="targetPoint" />
          </mxGeometry>
        </mxCell>
        <mxCell id="hDHnEfzuD4LZ0uGaTvJS-23" value="Use" style="endArrow=open;endSize=12;dashed=1;html=1;rounded=0;" edge="1" parent="1" source="hDHnEfzuD4LZ0uGaTvJS-1" target="hDHnEfzuD4LZ0uGaTvJS-5">
          <mxGeometry width="160" relative="1" as="geometry">
            <mxPoint x="571.2868864280604" y="411.1795503793844" as="sourcePoint" />
            <mxPoint x="768.6255946173892" y="318.7732542554827" as="targetPoint" />
          </mxGeometry>
        </mxCell>
        <mxCell id="hDHnEfzuD4LZ0uGaTvJS-24" value="Use" style="endArrow=open;endSize=12;dashed=1;html=1;rounded=0;" edge="1" parent="1" source="hDHnEfzuD4LZ0uGaTvJS-1" target="hDHnEfzuD4LZ0uGaTvJS-4">
          <mxGeometry width="160" relative="1" as="geometry">
            <mxPoint x="373.5" y="368.92999999999984" as="sourcePoint" />
            <mxPoint x="189.9727579337591" y="365.976364064192" as="targetPoint" />
          </mxGeometry>
        </mxCell>
        <mxCell id="hDHnEfzuD4LZ0uGaTvJS-25" value="Use" style="endArrow=open;endSize=12;dashed=1;html=1;rounded=0;exitX=0;exitY=1;exitDx=0;exitDy=0;" edge="1" parent="1" source="hDHnEfzuD4LZ0uGaTvJS-1" target="hDHnEfzuD4LZ0uGaTvJS-15">
          <mxGeometry width="160" relative="1" as="geometry">
            <mxPoint x="378.0329567193223" y="371.27947747204234" as="sourcePoint" />
            <mxPoint x="161.95357335981953" y="428.7077108119504" as="targetPoint" />
          </mxGeometry>
        </mxCell>
        <mxCell id="hDHnEfzuD4LZ0uGaTvJS-26" value="Use" style="endArrow=open;endSize=12;dashed=1;html=1;rounded=0;exitX=0.311;exitY=0.968;exitDx=0;exitDy=0;exitPerimeter=0;" edge="1" parent="1" source="hDHnEfzuD4LZ0uGaTvJS-1" target="hDHnEfzuD4LZ0uGaTvJS-14">
          <mxGeometry width="160" relative="1" as="geometry">
            <mxPoint x="388.0329567193223" y="381.27947747204234" as="sourcePoint" />
            <mxPoint x="171.95357335981953" y="438.7077108119504" as="targetPoint" />
          </mxGeometry>
        </mxCell>
        <mxCell id="hDHnEfzuD4LZ0uGaTvJS-27" value="Use" style="endArrow=open;endSize=12;dashed=1;html=1;rounded=0;exitX=0.411;exitY=1.018;exitDx=0;exitDy=0;exitPerimeter=0;" edge="1" parent="1" source="hDHnEfzuD4LZ0uGaTvJS-1" target="hDHnEfzuD4LZ0uGaTvJS-13">
          <mxGeometry width="160" relative="1" as="geometry">
            <mxPoint x="413.53999999999996" y="387.76" as="sourcePoint" />
            <mxPoint x="147.28159732443805" y="600.3770253817443" as="targetPoint" />
          </mxGeometry>
        </mxCell>
        <mxCell id="hDHnEfzuD4LZ0uGaTvJS-28" value="Use" style="endArrow=open;endSize=12;dashed=1;html=1;rounded=0;exitX=0.481;exitY=1.042;exitDx=0;exitDy=0;exitPerimeter=0;" edge="1" parent="1" source="hDHnEfzuD4LZ0uGaTvJS-1" target="hDHnEfzuD4LZ0uGaTvJS-12">
          <mxGeometry width="160" relative="1" as="geometry">
            <mxPoint x="430" y="370" as="sourcePoint" />
            <mxPoint x="159.15786124428018" y="683.1809053881861" as="targetPoint" />
          </mxGeometry>
        </mxCell>
        <mxCell id="hDHnEfzuD4LZ0uGaTvJS-29" value="Use" style="endArrow=open;endSize=12;dashed=1;html=1;rounded=0;exitX=0.5;exitY=1;exitDx=0;exitDy=0;" edge="1" parent="1" source="hDHnEfzuD4LZ0uGaTvJS-1" target="hDHnEfzuD4LZ0uGaTvJS-11">
          <mxGeometry width="160" relative="1" as="geometry">
            <mxPoint x="423.0225062474792" y="388.954987505042" as="sourcePoint" />
            <mxPoint x="246.9327241045262" y="741.0394241274391" as="targetPoint" />
          </mxGeometry>
        </mxCell>
        <mxCell id="hDHnEfzuD4LZ0uGaTvJS-30" value="(Médico / Estadístico)" style="shape=umlActor;verticalLabelPosition=bottom;verticalAlign=top;html=1;" vertex="1" parent="1">
          <mxGeometry x="405" y="70" width="30" height="60" as="geometry" />
        </mxCell>
        <mxCell id="hDHnEfzuD4LZ0uGaTvJS-31" value="" style="edgeStyle=orthogonalEdgeStyle;rounded=0;orthogonalLoop=1;jettySize=auto;html=1;" edge="1" parent="1" source="hDHnEfzuD4LZ0uGaTvJS-30" target="hDHnEfzuD4LZ0uGaTvJS-6">
          <mxGeometry relative="1" as="geometry">
            <mxPoint x="500" y="160" as="sourcePoint" />
            <mxPoint x="414" y="210" as="targetPoint" />
          </mxGeometry>
        </mxCell>
      </root>
    </mxGraphModel>
  </diagram>
</mxfile>
